<?xml version="1.0" encoding="utf-8"?>
<!-- Generator: Adobe Illustrator 23.0.2, SVG Export Plug-In . SVG Version: 6.00 Build 0)  -->
<svg version="1.1" id="Layer_1" xmlns="http://www.w3.org/2000/svg" xmlns:xlink="http://www.w3.org/1999/xlink" x="0px" y="0px"
	 viewBox="0 0 276.8 216" style="enable-background:new 0 0 276.8 216;" xml:space="preserve">
<style type="text/css">
	.st0{fill:#FFFFFF;}
</style>
<g>
	<path class="st0" d="M14.4,216c-1.2,0-2.4-0.2-3.6-0.7c-1.1-0.4-2-1.1-2.8-1.9c-0.8-0.8-1.5-1.8-1.9-2.9c-0.5-1.1-0.7-2.3-0.7-3.5
		l0,0c0-1.2,0.2-2.4,0.7-3.5c0.9-2.2,2.6-3.9,4.8-4.8c1.2-0.5,2.4-0.7,3.7-0.7c0.7,0,1.5,0.1,2.2,0.2c0.6,0.1,1.2,0.3,1.8,0.6
		c0.5,0.2,1.1,0.5,1.5,0.9c0.5,0.3,0.9,0.7,1.3,1.1l-2,2.3c-0.7-0.6-1.4-1.2-2.2-1.6c-0.8-0.4-1.8-0.6-2.7-0.6
		c-0.8,0-1.6,0.2-2.3,0.5c-0.7,0.3-1.3,0.8-1.8,1.3c-0.5,0.6-0.9,1.3-1.2,2c-0.3,0.8-0.4,1.6-0.4,2.4v-0.1c0,0.8,0.1,1.6,0.4,2.4
		c0.3,0.7,0.7,1.4,1.2,2c0.5,0.6,1.1,1,1.8,1.3c0.7,0.3,1.5,0.5,2.3,0.5c1,0,1.9-0.2,2.8-0.6c0.8-0.4,1.6-1,2.3-1.6l2,2
		c-0.4,0.5-0.9,0.9-1.4,1.3c-0.5,0.4-1,0.7-1.6,1c-0.6,0.3-1.2,0.5-1.9,0.6C16,215.9,15.2,216,14.4,216z"/>
	<path class="st0" d="M45.1,198.1h3.1v17.6h-3.1V198.1z"/>
	<path class="st0" d="M72.9,198.1h2.9l9.4,12.2v-12.2h3.1v17.6h-2.6L76,203.2v12.5h-3.1L72.9,198.1z"/>
	<path class="st0" d="M112.9,198.1h13v2.8h-10v4.5h8.8v2.8h-8.8v4.7H126v2.8h-13.1V198.1z"/>
	<path class="st0" d="M149.8,198.1h3.3l5.4,8.3l5.4-8.3h3.3v17.6H164v-12.6l-5.6,8.3h-0.1l-5.5-8.2v12.6h-3.1L149.8,198.1z"/>
	<path class="st0" d="M197.9,198h2.9l7.7,17.7h-3.3l-1.8-4.2h-8.3l-1.8,4.2h-3.2L197.9,198z M202.3,208.7l-3-7l-3,7H202.3z"/>
	<path class="st0" d="M237.8,215.9c-1.3,0-2.6-0.2-3.9-0.7c-1.3-0.5-2.4-1.2-3.4-2.1l1.9-2.2c0.8,0.7,1.6,1.3,2.6,1.7
		c0.9,0.4,2,0.6,3,0.6c0.8,0,1.6-0.2,2.3-0.6c0.5-0.4,0.9-1,0.8-1.6v0c0-0.3-0.1-0.6-0.2-0.8c-0.1-0.3-0.3-0.5-0.6-0.7
		c-0.4-0.3-0.8-0.5-1.2-0.6c-0.7-0.2-1.3-0.4-2-0.5c-0.9-0.2-1.7-0.4-2.5-0.7c-0.7-0.2-1.3-0.6-1.8-1c-0.5-0.4-0.9-0.9-1.1-1.4
		c-0.3-0.7-0.4-1.4-0.4-2.1v0c0-0.7,0.1-1.4,0.4-2.1c0.3-0.6,0.7-1.2,1.2-1.6c0.6-0.4,1.2-0.8,1.9-1c0.8-0.3,1.6-0.4,2.4-0.4
		c1.2,0,2.4,0.2,3.5,0.6c1,0.4,2,0.9,2.9,1.6l-1.7,2.3c-0.7-0.6-1.5-1-2.4-1.3c-0.8-0.3-1.6-0.5-2.4-0.5c-0.8,0-1.5,0.2-2.1,0.6
		c-0.5,0.3-0.7,0.9-0.7,1.5v0c0,0.3,0.1,0.6,0.2,0.9c0.1,0.3,0.4,0.5,0.6,0.7c0.4,0.3,0.8,0.5,1.3,0.6c0.5,0.2,1.2,0.4,2.1,0.6
		c0.8,0.2,1.7,0.5,2.5,0.8c0.6,0.2,1.2,0.6,1.8,1c0.5,0.4,0.8,0.9,1.1,1.4c0.3,0.6,0.4,1.2,0.4,1.9l0,0c0,0.8-0.1,1.5-0.5,2.2
		c-0.3,0.6-0.7,1.2-1.3,1.7c-0.6,0.5-1.3,0.8-2,1C239.5,215.8,238.7,215.9,237.8,215.9z"/>
	<path class="st0" d="M127.2,18.7v52.6l22.5,28l5,6.4c13.6-10.5,26.2-14.8,37.6-12.8c14.4,2.5,23.3,14.7,24.7,16.7
		c2.9,5.7,4.7,12,5.2,18.4v0.1c0.1,1.4,0.1,2.9,0,4.3c0,0-0.1,26.1-0.1,27.2c0,8.1,4,15.7,10.7,20.2l11.2,7.6V139
		c0.4-5.7,0.2-8.4,0.2-14.3c-0.7-7.5-4.3-23-12.4-32.9l0,0.1c-6-7.1-17.8-18.1-35.2-21.2c-15.2-2.8-30.8,0.9-46.8,11V0L127.2,18.7z"
		/>
	<path class="st0" d="M19.8,83.8C1.7,100.5-9,133.5,10.2,161.4c11,16,25.8,21.9,41.8,24.6c26.2,4.4,48.5-11.7,49.4-12.3l-13.3-18.2
		c-0.2,0.1-15.9,13-32.7,10.1c-11.1-1.9-21-8.2-27.3-17.5c-12.3-18-3.7-37.9,7-47.7c12.5-11.5,31.2-13,45.4-3.8
		c17.7,11.2,29,29.2,41.3,44.6c15,19,29.2,36.8,47.5,44.7c5.5,2.3,11.3,3.5,17.2,3.4c11.8,0,26.2-4.5,35.6-13.2c0.3-0.3-3.3-2.2-4-9
		c-0.5-4.4-0.4-19.6-1-18.7c-1.4,2.3-3,4.5-4.9,6.5c-9.6,10.2-24.3,14.7-34.1,10.5c-13-5.6-25-20.6-38.7-38
		c-12.4-15.7-26.5-33.4-44.7-48.1C85.2,71.3,73.4,67,61.2,67C45.4,67,30.3,74,19.8,83.8"/>
	<path class="st0" d="M248.1,73.5c-5.9,3.1-10.7,7.8-13.9,13.6c5.8,6.9,10,15,12.2,23.8c7.1-20.5,27.4-19.7,30.4-19.9V68.5
		c-0.2,0-0.6,0-1.3,0h-1.1C269.3,68.5,257.5,68.8,248.1,73.5"/>
</g>
</svg>
