<svg id="Layer_1" data-name="Layer 1" xmlns="http://www.w3.org/2000/svg" viewBox="0 0 360 360"><defs><style>.cls-1{fill:#fff;}</style></defs><path class="cls-1" d="M55.9,286.14a8.92,8.92,0,0,1-3.57-.7,8.77,8.77,0,0,1-2.84-1.93,8.89,8.89,0,0,1-1.89-2.88,9.26,9.26,0,0,1-.68-3.54v0a9.26,9.26,0,0,1,.67-3.54,8.88,8.88,0,0,1,4.76-4.85,9.15,9.15,0,0,1,3.68-.72,11.53,11.53,0,0,1,2.2.2,9.47,9.47,0,0,1,1.82.57,8.19,8.19,0,0,1,1.53.87,11.69,11.69,0,0,1,1.34,1.1l-2,2.29a9.82,9.82,0,0,0-2.24-1.58,5.85,5.85,0,0,0-2.69-.6,5.5,5.5,0,0,0-2.33.49,5.68,5.68,0,0,0-1.84,1.33,5.92,5.92,0,0,0-1.21,2,6.7,6.7,0,0,0-.43,2.42V277a6.74,6.74,0,0,0,.43,2.42,6,6,0,0,0,1.21,2,5.73,5.73,0,0,0,1.84,1.35,5.5,5.5,0,0,0,2.33.49,5.72,5.72,0,0,0,2.77-.62A10.81,10.81,0,0,0,61.06,281l2,2a10.77,10.77,0,0,1-1.42,1.3,9.26,9.26,0,0,1-1.6,1,7.76,7.76,0,0,1-1.87.63A11.18,11.18,0,0,1,55.9,286.14Z"/><path class="cls-1" d="M86.56,268.23h3.07v17.61H86.56Z"/><path class="cls-1" d="M114.48,268.23h2.86l9.41,12.18V268.23h3.07v17.61h-2.59l-9.68-12.52v12.52h-3.07Z"/><path class="cls-1" d="M154.44,268.23h13V271h-10v4.52h8.83v2.8h-8.83v4.7H167.6v2.79H154.44Z"/><path class="cls-1" d="M191.42,268.23h3.29l5.36,8.33,5.36-8.33h3.29v17.61h-3.07V273.21l-5.56,8.3H200l-5.5-8.25v12.58h-3.07Z"/><path class="cls-1" d="M239.58,268.11h2.87l7.75,17.73h-3.27l-1.79-4.25h-8.32L235,285.84h-3.17ZM244,278.85l-3-7-3,7Z"/><path class="cls-1" d="M279.52,286.09a11.2,11.2,0,0,1-3.9-.69,10.73,10.73,0,0,1-3.44-2.12l1.86-2.22a10.77,10.77,0,0,0,2.59,1.7,7.19,7.19,0,0,0,3,.59,3.9,3.9,0,0,0,2.28-.6,1.9,1.9,0,0,0,.84-1.61v-.05a2.08,2.08,0,0,0-.17-.85,1.89,1.89,0,0,0-.6-.69,4.69,4.69,0,0,0-1.21-.6,15.21,15.21,0,0,0-2-.55,19.91,19.91,0,0,1-2.51-.75,6.81,6.81,0,0,1-1.84-1,4,4,0,0,1-1.13-1.45,5,5,0,0,1-.39-2.06v-.05a4.77,4.77,0,0,1,.45-2.08,4.87,4.87,0,0,1,1.23-1.61,6,6,0,0,1,1.89-1,7.47,7.47,0,0,1,2.41-.38,10.06,10.06,0,0,1,3.49.57,10.38,10.38,0,0,1,2.9,1.65l-1.66,2.34a10.54,10.54,0,0,0-2.39-1.35,6.48,6.48,0,0,0-2.39-.47,3.31,3.31,0,0,0-2.11.61,1.84,1.84,0,0,0-.75,1.48v.05a2.29,2.29,0,0,0,.17.9,1.71,1.71,0,0,0,.65.7,5.33,5.33,0,0,0,1.28.59c.55.19,1.24.38,2.08.58a17.92,17.92,0,0,1,2.46.78,6,6,0,0,1,1.78,1,4.05,4.05,0,0,1,1.07,1.44,4.63,4.63,0,0,1,.37,1.9v0a5.08,5.08,0,0,1-.47,2.21,4.64,4.64,0,0,1-1.28,1.66,5.65,5.65,0,0,1-2,1A8.81,8.81,0,0,1,279.52,286.09Z"/><path class="cls-1" d="M168.77,88.57v52.66l22.54,28,5,6.42c13.61-10.52,26.24-14.84,37.61-12.84,14.41,2.53,23.3,14.72,24.69,16.75A48.23,48.23,0,0,1,263.79,198v.12a35.06,35.06,0,0,1,0,4.35s-.08,26.12-.09,27.26a24.2,24.2,0,0,0,10.72,20.18l11.22,7.63V209.09c.36-5.68.2-8.46.19-14.35-.73-7.54-4.33-23-12.39-32.93l-.05.11c-6-7.07-17.87-18.09-35.25-21.27-15.18-2.77-30.88.93-46.82,11V69.88Z"/><path class="cls-1" d="M61.24,153.79c-18.11,16.76-28.84,49.72-9.61,77.65,11,16,25.84,21.94,41.9,24.65,26.27,4.42,48.52-11.67,49.45-12.35l-13.31-18.2c-.16.11-15.95,13-32.74,10.14a41.2,41.2,0,0,1-27.38-17.57c-12.36-18-3.66-37.91,7-47.78A37.15,37.15,0,0,1,122,166.55c17.74,11.24,29,29.21,41.31,44.68,15,19,29.25,36.85,47.53,44.71a43.58,43.58,0,0,0,17.27,3.44c11.82,0,26.19-4.46,35.68-13.26.31-.29-3.26-2.2-4-9.05-.48-4.4-.45-19.64-1-18.77a39,39,0,0,1-4.9,6.47c-9.61,10.21-24.3,14.71-34.17,10.47-13.06-5.62-25-20.64-38.79-38-12.43-15.67-26.53-33.42-44.79-48.19a52.23,52.23,0,0,0-33.39-12.12c-15.82,0-30.92,7-41.54,16.88"/><path class="cls-1" d="M289.85,143.49a33.81,33.81,0,0,0-13.94,13.57,59.89,59.89,0,0,1,12.2,23.83c7.1-20.51,27.41-19.72,30.45-19.95v-22.5c-.2,0-.64,0-1.26,0h-1.15c-5.08,0-16.85.34-26.3,5.05"/></svg>